<svg id="Layer_2" xmlns="http://www.w3.org/2000/svg" viewBox="0 0 504.54 967.98"><defs><style>.cls-1{fill:#231f20}</style></defs><path class="cls-1" d="m122.1 54.99 14.2-18.22-22.65 4.53 3.29 5.32-13.54 8.36c-3.35-5.59-7.05-9.65-7.05-9.65S87 34.74 72.8 31.08c-14.2-3.67-27.17.71-27.17.71s-5.32.95-9.3.95-3.31-4.34-3.31-4.34 1.14-3.25-3-4.13c-4.13-.88-4.44 5.27-4.44 5.27-.36 12.34 16.11 9.61 16.11 9.61l.18-.02 24.07 38.98-13.98 8.64-7.4-1.99-20.58 12.71 9.57 2.33-1.91 10.07 20.58-12.71 1.61-7.56 13.91-8.59 23.89 38.68-.4.59s-9.95 13.41 1.2 18.72c0 0 5.61 2.53 6.71-1.55 1.1-4.08-2.31-4.55-2.31-4.55s-4.17-1.38-2.35-4.92c1.81-3.54 5.08-7.84 5.08-7.84s9.81-9.54 13.02-23.85c3.22-14.31-1.94-27.46-1.94-27.46s-1.98-5.29-5.52-10.91l13.59-8.39 3.38 5.47ZM45.61 38.67l.43-.05c6.25-2.38 14.25-2.38 14.25-2.38s1.55-.1 10.54 1.34S91.9 50.29 91.9 50.29l6.3 7.89L68.85 76.3 45.61 38.66Zm58.6 31.85s4.5 15.89 1.69 24.55-3.61 9.99-3.61 9.99-3.62 7.06-8.56 11.54L70.64 79.21 99.96 61.1l4.25 9.41ZM376.29 98.92c-.09-.31-.2-.62-.35-.94-.15-.32-.33-.6-.56-.86-.23-.26-.5-.47-.81-.63-.31-.16-.67-.24-1.09-.24-.53 0-1.01.11-1.44.32-.43.22-.78.51-1.08.88s-.52.8-.67 1.3c-.15.49-.23 1.02-.23 1.58 0 .76.1 1.47.3 2.15.2.68.48 1.27.84 1.78s.79.91 1.3 1.21c.51.3 1.07.45 1.7.45.55 0 1.03-.09 1.43-.26.41-.17.76-.41 1.06-.7.3-.29.55-.64.77-1.03.22-.39.41-.8.58-1.24l.71.29c-.2.74-.47 1.41-.81 1.99-.34.59-.74 1.08-1.2 1.49-.46.41-.98.72-1.55.93-.58.21-1.2.32-1.87.32-.78 0-1.51-.15-2.19-.46-.68-.31-1.27-.72-1.77-1.26-.5-.53-.9-1.16-1.19-1.87-.29-.71-.44-1.47-.44-2.28 0-.6.07-1.17.22-1.72s.35-1.07.62-1.55.59-.92.96-1.31.79-.73 1.25-1.01c.46-.28.95-.5 1.47-.66.52-.15 1.06-.23 1.63-.23.47 0 .92.05 1.36.16.43.11.83.26 1.19.46s.68.44.96.73c.28.29.49.61.65.97l-1.72 1.24ZM389.47 107.46c-.31-.15-.57-.37-.78-.66s-.32-.6-.32-.97c-.28.21-.55.43-.82.65-.27.22-.56.43-.87.61-.31.18-.66.33-1.04.45s-.83.17-1.33.17c-.46 0-.88-.08-1.26-.23-.38-.15-.69-.36-.95-.62s-.46-.58-.6-.94a3.2 3.2 0 0 1-.21-1.17c0-.51.1-.97.3-1.38.2-.41.48-.78.83-1.1s.76-.61 1.22-.86.96-.48 1.48-.67c.53-.2 1.07-.37 1.62-.53.56-.15 1.1-.3 1.62-.43v-.74c0-.54-.04-1-.12-1.37-.08-.37-.2-.67-.36-.9s-.37-.39-.62-.49c-.25-.1-.55-.15-.9-.15s-.64.07-.92.2a2.575 2.575 0 0 0-1.26 1.31c-.14.3-.23.61-.27.95h-2.16c.06-.51.24-.97.53-1.37.29-.4.66-.74 1.1-1.01.44-.27.94-.49 1.5-.63.56-.15 1.14-.22 1.75-.22.77 0 1.42.08 1.95.23.53.15.95.36 1.26.63.32.27.54.6.68.99s.2.82.2 1.29v7.33c0 .36.11.69.32.97s.47.5.78.66h-2.37Zm-1.1-6.91c-.34.11-.69.23-1.06.37-.36.14-.72.3-1.07.47-.35.17-.68.36-1 .56-.32.2-.6.42-.84.65-.24.23-.43.48-.57.73s-.21.52-.21.8c0 .29.05.57.16.83s.25.49.43.68c.18.2.38.35.61.46s.47.17.72.17c.26 0 .51-.03.75-.1s.47-.16.7-.28c.22-.12.45-.26.67-.41.22-.15.45-.32.68-.5v-4.43ZM398.13 106.89a2.501 2.501 0 0 0 1.58-.54c.2-.16.35-.35.46-.56.11-.21.16-.43.16-.66 0-.36-.09-.68-.27-.95-.18-.27-.42-.51-.72-.72s-.64-.41-1.01-.59c-.38-.18-.77-.36-1.16-.55s-.78-.39-1.16-.6c-.38-.21-.72-.46-1.01-.75-.3-.29-.54-.62-.72-.99s-.27-.81-.27-1.32c0-.47.1-.91.3-1.32.2-.41.48-.76.84-1.05.36-.29.79-.52 1.28-.69.49-.17 1.04-.25 1.62-.25.39 0 .76.03 1.1.08a3.728 3.728 0 0 1 1.98.98c.32.29.67.67 1.03 1.13l-.87.78c-.45-.73-.95-1.28-1.5-1.64-.55-.36-1.14-.54-1.77-.54-.34 0-.65.04-.93.12-.28.08-.52.19-.71.34-.2.14-.35.31-.46.5-.11.19-.17.4-.17.61 0 .36.1.67.3.93.2.26.46.5.78.71.32.21.69.41 1.11.59.41.18.84.36 1.26.55.43.19.85.39 1.26.6.41.22.78.47 1.11.75.32.28.59.61.78.98.2.37.3.8.3 1.3s-.09.97-.28 1.41c-.19.44-.47.82-.84 1.14-.38.32-.84.57-1.41.76-.56.19-1.23.28-1.99.28-.35 0-.71-.03-1.07-.08-.37-.05-.74-.16-1.11-.32-.37-.16-.74-.38-1.11-.67-.37-.29-.74-.66-1.09-1.13l.96-.87c.29.4.56.74.82 1.03.26.28.53.51.81.7.27.18.56.31.85.39.29.08.6.12.95.12ZM408.36 97.76c.7-.8 1.45-1.41 2.23-1.8.78-.4 1.57-.6 2.37-.6.42 0 .81.09 1.17.28.36.19.67.44.95.77.27.32.48.71.64 1.14.15.44.23.9.23 1.4v8.51h-2.35v-8.11c0-.79-.18-1.39-.53-1.79-.36-.41-.81-.61-1.37-.61-.25 0-.51.04-.79.13s-.56.2-.85.35c-.29.15-.57.33-.86.54-.29.21-.56.44-.82.7v8.79h-2.37V90.2l1.69-.67h.67v8.23ZM421.81 95.36h.67v2.46c.3-.32.64-.64 1.02-.93.38-.3.77-.56 1.17-.79.4-.23.8-.41 1.21-.54.4-.13.78-.2 1.15-.2s.7.06 1.06.19c.36.12.69.3 1 .52.31.22.57.49.79.79.22.31.37.64.43 1 .19-.35.46-.67.81-.98.34-.31.72-.57 1.14-.79.42-.22.86-.4 1.33-.53.47-.13.93-.2 1.37-.2s.87.1 1.26.3c.39.2.73.46 1.03.8.29.34.53.73.7 1.18.17.45.25.93.25 1.44v8.37h-2.35V99.4c0-.33-.06-.65-.17-.95-.11-.3-.27-.56-.46-.78-.19-.22-.42-.4-.68-.53-.26-.13-.53-.2-.82-.2-.32 0-.66.04-.99.13-.34.09-.66.21-.96.37-.3.15-.58.33-.82.54-.25.2-.44.42-.59.66v8.81h-2.35V99.4c0-.33-.06-.65-.17-.95-.12-.3-.27-.56-.46-.78-.19-.22-.42-.4-.68-.53-.26-.13-.54-.2-.82-.2-.3 0-.61.05-.93.14s-.63.22-.94.37c-.31.15-.59.33-.85.54-.26.2-.48.42-.65.64v8.81h-2.37V96l1.69-.66ZM447.39 107.72c-.8 0-1.56-.15-2.27-.45-.71-.3-1.32-.71-1.85-1.23s-.94-1.13-1.25-1.83-.46-1.44-.46-2.23c0-.95.14-1.83.42-2.64s.67-1.51 1.18-2.09c.51-.59 1.12-1.05 1.84-1.38.72-.33 1.51-.5 2.4-.5.77 0 1.48.14 2.13.41.65.27 1.21.64 1.68 1.1.47.46.83.99 1.09 1.59s.39 1.23.39 1.89h-8.85c0 .8.1 1.54.31 2.22.2.68.49 1.27.86 1.76s.81.88 1.32 1.16 1.07.42 1.68.42c.51 0 1-.08 1.47-.25.47-.17.9-.38 1.28-.66.38-.27.71-.58.98-.93.27-.35.46-.71.57-1.08l.68.3a5.55 5.55 0 0 1-.82 1.72c-.38.53-.82 1-1.33 1.4a6.8 6.8 0 0 1-1.65.95c-.6.23-1.2.35-1.81.35Zm2.34-8.3c0-.45-.08-.87-.24-1.25-.16-.39-.38-.72-.66-1s-.6-.5-.97-.67-.77-.24-1.19-.24c-.36 0-.7.08-1.02.24s-.61.38-.87.66c-.25.28-.47.62-.63 1-.17.39-.27.8-.3 1.25h5.88ZM458.04 95.36h.36l.31 2.42c.19-.36.42-.68.7-.97.28-.29.59-.55.92-.77.34-.22.69-.38 1.07-.5a3.768 3.768 0 0 1 2.17-.04c.34.09.65.24.95.44l-.74 1.98c-.15-.17-.32-.31-.49-.41-.17-.1-.34-.19-.52-.24-.18-.06-.36-.09-.55-.11-.19-.02-.37-.02-.56-.02-.29 0-.58.04-.86.13s-.55.21-.81.38-.49.38-.71.64c-.22.26-.41.56-.57.91v8.27h-2.35V96.02l1.68-.65ZM471.31 107.72c-.8 0-1.56-.15-2.27-.45s-1.32-.71-1.85-1.23-.94-1.13-1.25-1.83-.46-1.44-.46-2.23c0-.95.14-1.83.42-2.64s.67-1.51 1.18-2.09c.51-.59 1.12-1.05 1.84-1.38.71-.33 1.51-.5 2.39-.5.77 0 1.48.14 2.13.41.65.27 1.21.64 1.68 1.1.47.46.83.99 1.09 1.59s.39 1.23.39 1.89h-8.85c0 .8.1 1.54.31 2.22.2.68.49 1.27.86 1.76s.81.88 1.32 1.16 1.07.42 1.68.42c.51 0 1-.08 1.47-.25s.9-.38 1.28-.66c.38-.27.71-.58.98-.93s.46-.71.57-1.08l.68.3c-.17.61-.44 1.18-.82 1.72s-.82 1-1.33 1.4c-.51.4-1.06.71-1.65.95s-1.2.35-1.81.35Zm2.34-8.3c0-.45-.08-.87-.24-1.25-.16-.39-.38-.72-.66-1s-.6-.5-.97-.67-.77-.24-1.19-.24c-.36 0-.7.08-1.02.24s-.61.38-.87.66a3.4 3.4 0 0 0-.63 1c-.17.39-.26.8-.3 1.25h5.88ZM194.96 85.6c-1.48-.74-2.72-1.78-3.74-3.13s-1.52-2.89-1.52-4.62c-1.33 1-2.63 2.03-3.9 3.1a29.575 29.575 0 0 1-4.15 2.91c-1.49.87-3.16 1.58-4.98 2.13-1.83.55-3.94.83-6.34.83-2.21 0-4.22-.36-6.01-1.08-1.79-.72-3.3-1.71-4.54-2.96-1.24-1.25-2.2-2.75-2.88-4.49-.68-1.73-1.02-3.6-1.02-5.59 0-2.44.48-4.63 1.44-6.59s2.28-3.7 3.96-5.23 3.63-2.9 5.84-4.1 4.58-2.27 7.09-3.21 5.09-1.78 7.75-2.52 5.24-1.42 7.75-2.05v-3.54c0-2.58-.19-4.76-.55-6.53-.37-1.77-.94-3.2-1.72-4.29s-1.76-1.86-2.96-2.33-2.63-.69-4.29-.69-3.04.31-4.37.94c-1.33.63-2.5 1.47-3.52 2.52s-1.85 2.29-2.49 3.71c-.65 1.42-1.08 2.93-1.3 4.51h-10.3c.29-2.44 1.13-4.61 2.52-6.53 1.38-1.92 3.13-3.53 5.23-4.85 2.1-1.31 4.49-2.32 7.17-3.02 2.68-.7 5.45-1.05 8.33-1.05 3.69 0 6.79.36 9.3 1.08 2.51.72 4.52 1.73 6.03 3.02 1.51 1.29 2.59 2.87 3.24 4.73.65 1.86.97 3.92.97 6.17v34.99c0 1.74.51 3.28 1.52 4.62s2.26 2.39 3.74 3.13h-11.3Zm-5.26-33c-1.63.52-3.3 1.11-5.04 1.77a54.92 54.92 0 0 0-5.09 2.24c-1.66.83-3.25 1.73-4.76 2.69-1.51.96-2.84 1.99-3.99 3.1-1.14 1.11-2.05 2.27-2.71 3.49s-1 2.49-1 3.82c0 1.4.26 2.72.78 3.96.52 1.24 1.2 2.33 2.05 3.27.85.94 1.83 1.68 2.93 2.21s2.25.8 3.43.8c1.25 0 2.45-.17 3.6-.5 1.14-.33 2.25-.78 3.32-1.36a32.65 32.65 0 0 0 3.21-1.97c1.07-.74 2.16-1.53 3.27-2.38V52.59ZM227.24 27.85h1.72l1.49 11.57c.89-1.7 1.99-3.25 3.32-4.65 1.33-1.4 2.8-2.62 4.4-3.65 1.61-1.03 3.3-1.84 5.09-2.41 1.79-.57 3.61-.86 5.45-.86 1.66 0 3.29.22 4.9.66 1.61.44 3.11 1.14 4.51 2.1l-3.54 9.47c-.74-.81-1.51-1.47-2.33-1.97a11.2 11.2 0 0 0-2.49-1.16c-.85-.28-1.72-.45-2.6-.53-.89-.07-1.77-.11-2.66-.11-1.4 0-2.78.2-4.12.61-1.35.41-2.63 1.01-3.85 1.8s-2.34 1.81-3.38 3.04c-1.03 1.24-1.94 2.69-2.71 4.35v39.48H219.2V30.95l8.03-3.1ZM303.82 44.85c-.41-1.48-.96-2.97-1.66-4.49-.7-1.51-1.6-2.89-2.69-4.13a13.356 13.356 0 0 0-3.85-3.02c-1.48-.78-3.21-1.16-5.2-1.16-2.55 0-4.84.52-6.87 1.55a15.361 15.361 0 0 0-5.15 4.21c-1.4 1.77-2.47 3.84-3.21 6.2-.74 2.36-1.11 4.87-1.11 7.53 0 3.62.47 7.04 1.41 10.27.94 3.23 2.27 6.06 3.99 8.5 1.72 2.44 3.78 4.37 6.2 5.79 2.42 1.42 5.12 2.13 8.11 2.13 2.62 0 4.9-.41 6.84-1.25 1.94-.83 3.62-1.95 5.04-3.35 1.42-1.4 2.65-3.04 3.68-4.9 1.03-1.86 1.96-3.83 2.77-5.9l3.38 1.38c-.96 3.54-2.25 6.72-3.88 9.52-1.63 2.81-3.54 5.18-5.73 7.11-2.2 1.94-4.67 3.41-7.42 4.43-2.75 1.02-5.73 1.52-8.94 1.52-3.73 0-7.22-.73-10.47-2.19-3.25-1.46-6.07-3.46-8.47-6.01-2.4-2.55-4.3-5.52-5.7-8.91-1.4-3.4-2.1-7.03-2.1-10.91 0-2.84.35-5.58 1.05-8.22.7-2.64 1.69-5.1 2.96-7.39s2.8-4.37 4.6-6.26 3.77-3.5 5.95-4.84c2.18-1.35 4.51-2.39 7-3.13 2.49-.74 5.08-1.11 7.78-1.11 2.25 0 4.41.26 6.48.78 2.07.52 3.97 1.25 5.7 2.19s3.27 2.1 4.6 3.49c1.33 1.38 2.36 2.93 3.1 4.62l-8.19 5.92ZM342.74 39.31c3.36-3.84 6.9-6.71 10.63-8.61 3.73-1.9 7.49-2.85 11.3-2.85 1.99 0 3.85.44 5.56 1.33 1.72.89 3.22 2.1 4.51 3.65 1.29 1.55 2.31 3.37 3.05 5.45.74 2.09 1.11 4.31 1.11 6.67v40.64h-11.24V46.9c0-3.77-.85-6.62-2.55-8.56-1.7-1.94-3.88-2.91-6.53-2.91-1.18 0-2.44.2-3.77.61s-2.68.97-4.04 1.69c-1.37.72-2.73 1.58-4.1 2.57-1.37 1-2.68 2.1-3.93 3.32v41.97h-11.3V3.21L339.52 0h3.21v39.31ZM422.81 86.82c-3.84 0-7.45-.72-10.82-2.16-3.38-1.44-6.32-3.4-8.83-5.87s-4.49-5.38-5.95-8.72-2.19-6.89-2.19-10.66c0-4.54.66-8.74 1.99-12.6s3.21-7.19 5.65-9.99c2.44-2.8 5.36-5 8.78-6.59 3.41-1.59 7.23-2.38 11.43-2.38 3.69 0 7.09.66 10.19 1.97 3.1 1.31 5.77 3.06 8 5.26s3.97 4.73 5.2 7.61 1.86 5.89 1.86 9.03h-42.25c0 3.8.49 7.33 1.47 10.58s2.35 6.05 4.12 8.42c1.77 2.36 3.88 4.21 6.31 5.54s5.11 1.99 8.03 1.99c2.44 0 4.78-.4 7.03-1.19 2.25-.79 4.29-1.84 6.12-3.13 1.83-1.29 3.39-2.77 4.68-4.43 1.29-1.66 2.2-3.38 2.71-5.15l3.27 1.44c-.81 2.92-2.12 5.65-3.93 8.19a31.885 31.885 0 0 1-6.34 6.67c-2.42 1.9-5.05 3.41-7.89 4.51-2.84 1.11-5.72 1.66-8.64 1.66Zm11.18-39.65c0-2.14-.38-4.13-1.13-5.98-.76-1.85-1.8-3.44-3.13-4.79s-2.88-2.41-4.65-3.18-3.67-1.16-5.7-1.16c-1.7 0-3.32.38-4.87 1.14s-2.93 1.81-4.15 3.16c-1.22 1.35-2.22 2.94-3.02 4.79-.8 1.85-1.27 3.84-1.41 5.98l28.07.06ZM473.64 27.85h1.72l1.49 11.57c.89-1.7 1.99-3.25 3.32-4.65 1.33-1.4 2.8-2.62 4.4-3.65 1.61-1.03 3.3-1.84 5.09-2.41 1.79-.57 3.61-.86 5.45-.86 1.66 0 3.29.22 4.9.66 1.61.44 3.11 1.14 4.51 2.1l-3.54 9.47c-.74-.81-1.51-1.47-2.33-1.97a11.2 11.2 0 0 0-2.49-1.16c-.85-.28-1.72-.45-2.6-.53-.89-.07-1.77-.11-2.66-.11-1.4 0-2.78.2-4.12.61-1.35.41-2.63 1.01-3.85 1.8s-2.34 1.81-3.38 3.04c-1.03 1.24-1.94 2.69-2.71 4.35v39.48H465.6V30.95l8.03-3.1Z"/></svg>